<mxfile host="app.diagrams.net" agent="Mozilla/5.0 (Windows NT 10.0; Win64; x64; rv:140.0) Gecko/20100101 Firefox/140.0" version="27.1.6">
  <diagram name="Page-1" id="Nthi62DRn6deRU-0f1Of">
    <mxGraphModel dx="1377" dy="781" grid="1" gridSize="10" guides="1" tooltips="1" connect="1" arrows="1" fold="1" page="1" pageScale="1" pageWidth="850" pageHeight="1100" math="0" shadow="0" adaptiveColors="simple">
      <root>
        <mxCell id="0" />
        <mxCell id="1" parent="0" />
        <mxCell id="R_skdYYrgl4aK13wLpb1-3" value="&lt;div&gt;&lt;font style=&quot;font-size: 14px;&quot;&gt;Mobile Version,&lt;/font&gt;&lt;/div&gt;&lt;div&gt;&lt;font style=&quot;font-size: 14px;&quot;&gt;&amp;lt; 768 px&lt;/font&gt;&lt;/div&gt;" style="rounded=1;whiteSpace=wrap;html=1;fontFamily=Helvetica;" vertex="1" parent="1">
          <mxGeometry x="240" y="80" width="120" height="60" as="geometry" />
        </mxCell>
        <mxCell id="R_skdYYrgl4aK13wLpb1-4" value="&lt;div&gt;&lt;font style=&quot;font-size: 14px;&quot;&gt;Desktop&amp;nbsp;Version,&lt;/font&gt;&lt;/div&gt;&lt;div&gt;&lt;font style=&quot;font-size: 14px;&quot;&gt;&amp;gt; 768 px&lt;/font&gt;&lt;/div&gt;" style="rounded=1;whiteSpace=wrap;html=1;fontFamily=Helvetica;" vertex="1" parent="1">
          <mxGeometry x="800" y="80" width="120" height="60" as="geometry" />
        </mxCell>
        <mxCell id="R_skdYYrgl4aK13wLpb1-7" value="" style="rounded=0;whiteSpace=wrap;html=1;fontFamily=Helvetica;" vertex="1" parent="1">
          <mxGeometry x="120" y="160" width="360" height="330" as="geometry" />
        </mxCell>
        <mxCell id="R_skdYYrgl4aK13wLpb1-8" value="" style="rounded=0;whiteSpace=wrap;html=1;fontFamily=Helvetica;" vertex="1" parent="1">
          <mxGeometry x="520" y="160" width="680" height="330" as="geometry" />
        </mxCell>
        <mxCell id="R_skdYYrgl4aK13wLpb1-9" value="" style="rounded=0;whiteSpace=wrap;html=1;fontFamily=Helvetica;dashed=1;dashPattern=12 12;" vertex="1" parent="1">
          <mxGeometry x="120" y="160" width="40" height="330" as="geometry" />
        </mxCell>
        <mxCell id="R_skdYYrgl4aK13wLpb1-10" value="Thin Header, fixed, will not be removed" style="rounded=0;whiteSpace=wrap;html=1;fontFamily=Helvetica;" vertex="1" parent="1">
          <mxGeometry x="520" y="160" width="680" height="40" as="geometry" />
        </mxCell>
        <mxCell id="R_skdYYrgl4aK13wLpb1-12" value="DMG" style="rounded=1;whiteSpace=wrap;html=1;fontFamily=Helvetica;" vertex="1" parent="1">
          <mxGeometry x="125" y="210" width="30" height="30" as="geometry" />
        </mxCell>
        <mxCell id="R_skdYYrgl4aK13wLpb1-13" value="PHB" style="rounded=1;whiteSpace=wrap;html=1;fontFamily=Helvetica;" vertex="1" parent="1">
          <mxGeometry x="125" y="250" width="30" height="30" as="geometry" />
        </mxCell>
        <mxCell id="R_skdYYrgl4aK13wLpb1-14" value="MM" style="rounded=1;whiteSpace=wrap;html=1;fontFamily=Helvetica;" vertex="1" parent="1">
          <mxGeometry x="125" y="290" width="30" height="30" as="geometry" />
        </mxCell>
        <mxCell id="R_skdYYrgl4aK13wLpb1-15" value="Char" style="rounded=1;whiteSpace=wrap;html=1;fontFamily=Helvetica;" vertex="1" parent="1">
          <mxGeometry x="125" y="330" width="30" height="30" as="geometry" />
        </mxCell>
        <mxCell id="R_skdYYrgl4aK13wLpb1-16" value="Dice" style="rounded=1;whiteSpace=wrap;html=1;fontFamily=Helvetica;" vertex="1" parent="1">
          <mxGeometry x="125" y="370" width="30" height="30" as="geometry" />
        </mxCell>
        <mxCell id="R_skdYYrgl4aK13wLpb1-17" value="Etc." style="rounded=1;whiteSpace=wrap;html=1;fontFamily=Helvetica;" vertex="1" parent="1">
          <mxGeometry x="125" y="410" width="30" height="30" as="geometry" />
        </mxCell>
        <mxCell id="R_skdYYrgl4aK13wLpb1-18" value="Thin Header with image/bar, hidden on scroll" style="rounded=0;whiteSpace=wrap;html=1;fontFamily=Helvetica;dashed=1;dashPattern=12 12;" vertex="1" parent="1">
          <mxGeometry x="160" y="160" width="320" height="40" as="geometry" />
        </mxCell>
        <mxCell id="R_skdYYrgl4aK13wLpb1-19" value="Nav Panel and Buttons" style="text;html=1;align=center;verticalAlign=middle;whiteSpace=wrap;rounded=0;fontFamily=Helvetica;" vertex="1" parent="1">
          <mxGeometry x="120" y="90" width="40" height="70" as="geometry" />
        </mxCell>
        <mxCell id="R_skdYYrgl4aK13wLpb1-22" value="" style="rounded=0;whiteSpace=wrap;html=1;fontFamily=Helvetica;" vertex="1" parent="1">
          <mxGeometry x="120" y="160" width="40" height="40" as="geometry" />
        </mxCell>
        <mxCell id="R_skdYYrgl4aK13wLpb1-11" value="&lt;font style=&quot;font-size: 28px;&quot;&gt;&amp;amp;&lt;/font&gt;" style="rounded=1;whiteSpace=wrap;html=1;fontFamily=Helvetica;" vertex="1" parent="1">
          <mxGeometry x="125" y="165" width="30" height="30" as="geometry" />
        </mxCell>
        <mxCell id="R_skdYYrgl4aK13wLpb1-23" value="..." style="text;html=1;align=center;verticalAlign=middle;whiteSpace=wrap;rounded=0;fontFamily=Helvetica;" vertex="1" parent="1">
          <mxGeometry x="120" y="450" width="40" height="30" as="geometry" />
        </mxCell>
        <mxCell id="R_skdYYrgl4aK13wLpb1-26" value="" style="rounded=0;whiteSpace=wrap;html=1;fontFamily=Helvetica;" vertex="1" parent="1">
          <mxGeometry x="520" y="160" width="80" height="330" as="geometry" />
        </mxCell>
        <mxCell id="R_skdYYrgl4aK13wLpb1-29" value="&lt;font style=&quot;font-size: 8px;&quot;&gt;Dungeon Master&#39;s Guide&lt;/font&gt;" style="rounded=1;whiteSpace=wrap;html=1;fontFamily=Helvetica;" vertex="1" parent="1">
          <mxGeometry x="530" y="210" width="60" height="30" as="geometry" />
        </mxCell>
        <mxCell id="R_skdYYrgl4aK13wLpb1-30" value="&lt;font style=&quot;font-size: 8px;&quot;&gt;Player&#39;s Handbook&lt;/font&gt;" style="rounded=1;whiteSpace=wrap;html=1;fontFamily=Helvetica;" vertex="1" parent="1">
          <mxGeometry x="530" y="250" width="60" height="30" as="geometry" />
        </mxCell>
        <mxCell id="R_skdYYrgl4aK13wLpb1-31" value="&lt;font style=&quot;font-size: 8px;&quot;&gt;Monster Manual&lt;/font&gt;" style="rounded=1;whiteSpace=wrap;html=1;fontFamily=Helvetica;" vertex="1" parent="1">
          <mxGeometry x="530" y="290" width="60" height="30" as="geometry" />
        </mxCell>
        <mxCell id="R_skdYYrgl4aK13wLpb1-32" value="&lt;font style=&quot;font-size: 8px;&quot;&gt;Character Sheet(s)&lt;/font&gt;" style="rounded=1;whiteSpace=wrap;html=1;fontFamily=Helvetica;" vertex="1" parent="1">
          <mxGeometry x="530" y="330" width="60" height="30" as="geometry" />
        </mxCell>
        <mxCell id="R_skdYYrgl4aK13wLpb1-33" value="&lt;font style=&quot;font-size: 8px;&quot;&gt;Dice Roller and Saver&lt;/font&gt;" style="rounded=1;whiteSpace=wrap;html=1;fontFamily=Helvetica;" vertex="1" parent="1">
          <mxGeometry x="530" y="370" width="60" height="30" as="geometry" />
        </mxCell>
        <mxCell id="R_skdYYrgl4aK13wLpb1-34" value="Etc." style="rounded=1;whiteSpace=wrap;html=1;fontFamily=Helvetica;" vertex="1" parent="1">
          <mxGeometry x="530" y="410" width="60" height="30" as="geometry" />
        </mxCell>
        <mxCell id="R_skdYYrgl4aK13wLpb1-36" value="&lt;font style=&quot;font-size: 28px;&quot;&gt;&amp;amp;&lt;/font&gt;" style="rounded=1;whiteSpace=wrap;html=1;fontFamily=Helvetica;" vertex="1" parent="1">
          <mxGeometry x="530" y="165" width="60" height="30" as="geometry" />
        </mxCell>
        <mxCell id="R_skdYYrgl4aK13wLpb1-37" value="..." style="text;html=1;align=center;verticalAlign=middle;whiteSpace=wrap;rounded=0;fontFamily=Helvetica;" vertex="1" parent="1">
          <mxGeometry x="540" y="450" width="40" height="30" as="geometry" />
        </mxCell>
        <mxCell id="R_skdYYrgl4aK13wLpb1-38" value="Nav Panel and Buttons" style="text;html=1;align=center;verticalAlign=middle;whiteSpace=wrap;rounded=0;fontFamily=Helvetica;" vertex="1" parent="1">
          <mxGeometry x="540" y="90" width="40" height="70" as="geometry" />
        </mxCell>
        <mxCell id="R_skdYYrgl4aK13wLpb1-41" value="&lt;div&gt;&lt;font style=&quot;font-size: 10px;&quot;&gt;&#39;Hide&#39; Button,&lt;/font&gt;&lt;/div&gt;&lt;div&gt;&lt;font style=&quot;font-size: 10px;&quot;&gt;aka Hambuger&amp;nbsp;&lt;/font&gt;&lt;/div&gt;&lt;div&gt;&lt;font style=&quot;font-size: 10px;&quot;&gt;menu&lt;/font&gt;&lt;/div&gt;" style="rounded=1;whiteSpace=wrap;html=1;fontFamily=Helvetica;" vertex="1" parent="1">
          <mxGeometry x="40" y="160" width="55" height="80" as="geometry" />
        </mxCell>
        <mxCell id="R_skdYYrgl4aK13wLpb1-42" value="" style="endArrow=classic;html=1;rounded=0;exitX=0.879;exitY=0.996;exitDx=0;exitDy=0;entryX=0;entryY=0.5;entryDx=0;entryDy=0;exitPerimeter=0;fontFamily=Helvetica;" edge="1" parent="1" source="R_skdYYrgl4aK13wLpb1-41" target="R_skdYYrgl4aK13wLpb1-22">
          <mxGeometry width="50" height="50" relative="1" as="geometry">
            <mxPoint x="40" y="360" as="sourcePoint" />
            <mxPoint x="90" y="310" as="targetPoint" />
          </mxGeometry>
        </mxCell>
        <mxCell id="R_skdYYrgl4aK13wLpb1-44" value="&lt;div&gt;Load Current subpage, display info/images,&lt;/div&gt;&lt;div&gt;images will be reduced to fit within window&lt;/div&gt;" style="text;html=1;align=center;verticalAlign=middle;whiteSpace=wrap;rounded=0;fontFamily=Helvetica;" vertex="1" parent="1">
          <mxGeometry x="170" y="210" width="110" height="90" as="geometry" />
        </mxCell>
        <mxCell id="R_skdYYrgl4aK13wLpb1-45" value="Load Current subpage, display info/images, images will not be reduced" style="text;html=1;align=center;verticalAlign=middle;whiteSpace=wrap;rounded=0;fontFamily=Helvetica;" vertex="1" parent="1">
          <mxGeometry x="610" y="210" width="110" height="70" as="geometry" />
        </mxCell>
        <mxCell id="R_skdYYrgl4aK13wLpb1-46" value="Footer, hidden unless scrolled to bottom, contains legalese, credits, info" style="rounded=0;whiteSpace=wrap;html=1;fontFamily=Helvetica;dashed=1;dashPattern=12 12;" vertex="1" parent="1">
          <mxGeometry x="160" y="450" width="320" height="40" as="geometry" />
        </mxCell>
        <mxCell id="R_skdYYrgl4aK13wLpb1-47" value="Footer, hidden unless scrolled to bottom, contains legalese, credits, info" style="rounded=0;whiteSpace=wrap;html=1;fontFamily=Helvetica;dashed=1;dashPattern=8 8;" vertex="1" parent="1">
          <mxGeometry x="600" y="450" width="600" height="40" as="geometry" />
        </mxCell>
        <mxCell id="R_skdYYrgl4aK13wLpb1-49" value="&lt;font style=&quot;font-size: 17px;&quot;&gt;&lt;b&gt;D&amp;amp;D Toolkit Webpage, Capstone Project, 2025&lt;br&gt;Evan Wheeler&lt;/b&gt;&lt;/font&gt;" style="text;html=1;align=center;verticalAlign=middle;whiteSpace=wrap;rounded=0;fontFamily=Helvetica;" vertex="1" parent="1">
          <mxGeometry x="460" y="30" width="400" height="40" as="geometry" />
        </mxCell>
        <mxCell id="R_skdYYrgl4aK13wLpb1-50" value="" style="rounded=0;whiteSpace=wrap;html=1;dashed=1;dashPattern=12 12;" vertex="1" parent="1">
          <mxGeometry x="1060" y="510" width="70" height="10" as="geometry" />
        </mxCell>
        <mxCell id="R_skdYYrgl4aK13wLpb1-52" value="" style="rounded=0;whiteSpace=wrap;html=1;" vertex="1" parent="1">
          <mxGeometry x="1060" y="540" width="70" height="10" as="geometry" />
        </mxCell>
        <mxCell id="R_skdYYrgl4aK13wLpb1-53" value="= Hidden" style="text;html=1;align=center;verticalAlign=middle;whiteSpace=wrap;rounded=0;" vertex="1" parent="1">
          <mxGeometry x="1140" y="500" width="60" height="30" as="geometry" />
        </mxCell>
        <mxCell id="R_skdYYrgl4aK13wLpb1-54" value="= Fixed" style="text;html=1;align=center;verticalAlign=middle;whiteSpace=wrap;rounded=0;" vertex="1" parent="1">
          <mxGeometry x="1140" y="530" width="60" height="30" as="geometry" />
        </mxCell>
      </root>
    </mxGraphModel>
  </diagram>
</mxfile>
